<svg version="1.1" id="Layer_1" xmlns="http://www.w3.org/2000/svg" xmlns:xlink="http://www.w3.org/1999/xlink" x="0px" y="0px"
	 width="100%" viewBox="0 0 151 130" enable-background="new 0 0 151 130" xml:space="preserve">
<path fill="#040404" opacity="1.000000" stroke="none"
	d="
M101.045258,9.812486
	C105.564217,15.390698 105.564217,15.390694 111.086380,11.656783
	C116.619820,7.915244 124.605125,8.095043 130.752686,12.099586
	C134.778015,14.721699 138.099243,23.182621 136.442535,28.605923
	C135.279907,32.411873 133.004440,35.909706 130.995117,39.412727
	C129.867859,41.377983 128.270966,43.073868 126.911987,44.856579
	C137.056229,53.983047 136.012299,65.613777 133.659409,76.440819
	C128.149536,101.795006 112.380249,118.523857 87.191277,125.252670
	C63.319824,131.629532 36.724388,120.617714 22.496452,100.416229
	C15.414089,90.360367 11.480227,79.389282 11.309233,67.544243
	C11.004864,46.460114 18.832815,28.626173 36.033001,15.664106
	C47.878262,6.737515 61.086964,0.577702 76.166069,2.347373
	C84.531013,3.329078 92.570992,7.079779 101.045258,9.812486
M104.557655,28.063942
	C91.880493,40.299812 79.123283,52.454208 66.555565,64.801476
	C58.758514,72.461769 58.844254,72.603905 50.010456,66.136452
	C46.883896,63.847420 43.042500,62.982113 40.378544,65.552902
	C38.181358,67.673264 36.382401,71.514626 36.534687,74.484215
	C36.835873,80.357170 48.772442,90.438652 54.746189,91.150917
	C61.223347,91.923210 66.357613,89.409325 70.884850,85.062431
	C80.113693,76.201202 89.419075,67.419518 98.626686,58.536396
	C107.123863,50.338680 115.552727,42.069820 123.976219,33.796196
	C129.015701,28.846373 129.668106,23.643124 125.879280,19.445005
	C122.476601,15.674762 117.698364,16.124472 112.384895,20.798204
	C109.889740,22.992939 107.491394,25.297731 104.557655,28.063942
M81.281532,32.789459
	C78.457977,32.716328 75.633575,32.557400 72.811005,32.585098
	C61.346840,32.697601 49.871880,32.605461 38.423141,33.101830
	C29.806192,33.475422 25.938711,41.766453 30.764563,48.914127
	C33.797768,53.406673 37.897938,55.857281 43.605629,56.252995
	C47.167683,56.499950 50.849430,57.986698 54.045013,59.716148
	C57.217907,61.433319 59.456551,61.383667 61.977200,58.830986
	C66.054283,54.702095 70.287659,50.725536 74.507088,46.739769
	C78.985611,42.509254 83.524818,38.342987 88.037521,34.148663
	C87.717300,33.704010 87.397079,33.259354 87.076859,32.814701
	C85.439537,32.814701 83.802208,32.814701 81.281532,32.789459
M76.837433,91.355141
	C72.721863,94.026779 68.413719,96.456078 64.589767,99.494705
	C63.150898,100.638084 61.976532,103.282944 62.163456,105.090019
	C62.786583,111.113998 67.591965,114.968941 73.814484,115.183975
	C80.002274,115.397812 85.877678,111.487709 86.397888,105.546524
	C87.052963,98.065155 86.555840,90.482895 86.555840,82.944168
	C86.010971,82.571236 85.466095,82.198311 84.921227,81.825386
	C82.390877,84.828148 79.860519,87.830910 76.837433,91.355141
z"/>
<path fill="#F9F9F9" opacity="1.000000" stroke="none"
	d="
M104.803421,27.808292
	C107.491394,25.297731 109.889740,22.992939 112.384895,20.798204
	C117.698364,16.124472 122.476601,15.674762 125.879280,19.445005
	C129.668106,23.643124 129.015701,28.846373 123.976219,33.796196
	C115.552727,42.069820 107.123863,50.338680 98.626686,58.536396
	C89.419075,67.419518 80.113693,76.201202 70.884850,85.062431
	C66.357613,89.409325 61.223347,91.923210 54.746189,91.150917
	C48.772442,90.438652 36.835873,80.357170 36.534687,74.484215
	C36.382401,71.514626 38.181358,67.673264 40.378544,65.552902
	C43.042500,62.982113 46.883896,63.847420 50.010456,66.136452
	C58.844254,72.603905 58.758514,72.461769 66.555565,64.801476
	C79.123283,52.454208 91.880493,40.299812 104.803421,27.808292
z"/>
<path fill="#FBFBFB" opacity="1.000000" stroke="none"
	d="
M81.723206,32.802078
	C83.802208,32.814701 85.439537,32.814701 87.076859,32.814701
	C87.397079,33.259354 87.717300,33.704010 88.037521,34.148663
	C83.524818,38.342987 78.985611,42.509254 74.507088,46.739769
	C70.287659,50.725536 66.054283,54.702095 61.977200,58.830986
	C59.456551,61.383667 57.217907,61.433319 54.045013,59.716148
	C50.849430,57.986698 47.167683,56.499950 43.605629,56.252995
	C37.897938,55.857281 33.797768,53.406673 30.764563,48.914127
	C25.938711,41.766453 29.806192,33.475422 38.423141,33.101830
	C49.871880,32.605461 61.346840,32.697601 72.811005,32.585098
	C75.633575,32.557400 78.457977,32.716328 81.723206,32.802078
z"/>
<path fill="#F6F6F6" opacity="1.000000" stroke="none"
	d="
M77.083801,91.094406
	C79.860519,87.830910 82.390877,84.828148 84.921227,81.825386
	C85.466095,82.198311 86.010971,82.571236 86.555840,82.944168
	C86.555840,90.482895 87.052963,98.065155 86.397888,105.546524
	C85.877678,111.487709 80.002274,115.397812 73.814484,115.183975
	C67.591965,114.968941 62.786583,111.113998 62.163456,105.090019
	C61.976532,103.282944 63.150898,100.638084 64.589767,99.494705
	C68.413719,96.456078 72.721863,94.026779 77.083801,91.094406
z"/>
</svg>